<?xml version="1.0" encoding="utf-8"?>
<!-- Generator: Adobe Illustrator 22.0.1, SVG Export Plug-In . SVG Version: 6.00 Build 0)  -->
<svg version="1.1" id="Layer_1" xmlns="http://www.w3.org/2000/svg" xmlns:xlink="http://www.w3.org/1999/xlink" x="0px" y="0px"
	 viewBox="0 0 30 30" style="enable-background:new 0 0 30 30;" xml:space="preserve">
<style type="text/css">
	.st0{fill:none;stroke:#000000;stroke-width:0.8504;stroke-linecap:round;stroke-miterlimit:10;}
	.st1{fill:none;stroke:#000000;stroke-width:0.7758;stroke-linecap:round;stroke-miterlimit:10;}
</style>
<g>
	<path class="st0" d="M19.6,8.2h-9.3c-1.4,0-2.5,1.1-2.5,2.5v13.6c0,1.4,1.1,2.5,2.5,2.5h9.3c1.4,0,2.5-1.1,2.5-2.5V10.6
		C22.1,9.3,21,8.2,19.6,8.2z"/>
	<path class="st1" d="M18.1,8.2v-4c0-0.6-0.5-1-1-1h-4.4c-0.6,0-1,0.5-1,1v4"/>
	<line class="st0" x1="11.2" y1="19.2" x2="19" y2="19.2"/>
	<line class="st0" x1="11.2" y1="22.8" x2="19" y2="22.8"/>
	<line class="st0" x1="11.2" y1="15.7" x2="19" y2="15.7"/>
	<line class="st0" x1="11.2" y1="12.1" x2="19" y2="12.1"/>
</g>
</svg>
