<?xml version="1.0" encoding="utf-8"?>
<!-- Generator: Adobe Illustrator 22.0.1, SVG Export Plug-In . SVG Version: 6.00 Build 0)  -->
<svg version="1.1" id="Layer_1" xmlns="http://www.w3.org/2000/svg" xmlns:xlink="http://www.w3.org/1999/xlink" x="0px" y="0px"
	 viewBox="0 0 30 30" style="enable-background:new 0 0 30 30;" xml:space="preserve">
<style type="text/css">
	.st0{fill:none;stroke:#000000;stroke-width:0.8504;stroke-linecap:round;stroke-miterlimit:10;}
	.st1{fill:none;stroke:#000000;stroke-width:0.7758;stroke-linecap:round;stroke-miterlimit:10;}
</style>
<g>
	<path class="st0" d="M19.7,8.4h-9.3c-1.4,0-2.5,1.1-2.5,2.5v12.6c0,1.4,1.1,2.5,2.5,2.5h9.3c1.4,0,2.5-1.1,2.5-2.5V10.8
		C22.1,9.5,21,8.4,19.7,8.4z"/>
	<path class="st1" d="M18.2,8.4v-4c0-0.6-0.5-1-1-1h-4.4c-0.6,0-1,0.5-1,1v4"/>
	<line class="st0" x1="11.2" y1="18.9" x2="19" y2="18.9"/>
	<line class="st0" x1="11.2" y1="22.3" x2="19" y2="22.3"/>
	<line class="st0" x1="11.2" y1="12" x2="19" y2="12"/>
	<line class="st0" x1="11.2" y1="15.4" x2="19" y2="15.4"/>
</g>
</svg>
