<?xml version="1.0" encoding="utf-8"?>
<!-- Generator: Adobe Illustrator 22.0.1, SVG Export Plug-In . SVG Version: 6.00 Build 0)  -->
<svg version="1.1" id="Layer_1" xmlns="http://www.w3.org/2000/svg" xmlns:xlink="http://www.w3.org/1999/xlink" x="0px" y="0px"
	 viewBox="0 0 30 30" style="enable-background:new 0 0 30 30;" xml:space="preserve">
<g id="Group_4783" transform="translate(-2937.268 -5243.343)">
	<path id="Rectangle_3060" style="fill:none;stroke:#000000;stroke-width:0.85;stroke-linecap:round;stroke-miterlimit:10;" d="
		M2947.2,5248.8h9.3c1.4,0,2.5,1.1,2.5,2.5v16.9c0,1.4-1.1,2.5-2.5,2.5h-9.3c-1.4,0-2.5-1.1-2.5-2.5v-16.9
		C2944.7,5249.9,2945.8,5248.8,2947.2,5248.8z"/>
	<path id="Path_8600" style="fill:none;stroke:#000000;stroke-width:0.85;stroke-linecap:round;stroke-miterlimit:10;" d="
		M2956,5248.8v-1c0-0.6-0.5-1-1-1c0,0,0,0,0,0h-6.4c-0.6,0-1,0.5-1,1v1"/>
	<path id="Path_8601" d="M2953.8,5259.2l-1.8,0c-0.1,0-0.2-0.1-0.2-0.2c0,0,0,0,0-0.1l0.9-3.1c0-0.1,0-0.1-0.1-0.2
		c-0.1,0-0.1,0-0.1,0l-3.1,3.9c-0.1,0.1-0.1,0.4,0.1,0.5c0.1,0,0.1,0.1,0.2,0.1l1.2,0c0.3,0,0.5,0.2,0.5,0.5c0,0.1,0,0.1,0,0.2
		l-0.8,2.6c0,0.1,0,0.1,0.1,0.2c0.1,0,0.1,0,0.1,0l3.2-4.1c0.1-0.1,0.1-0.2,0-0.3C2953.9,5259.2,2953.9,5259.2,2953.8,5259.2z"/>
</g>
</svg>
