<?xml version="1.0" encoding="utf-8"?>
<!-- Generator: Adobe Illustrator 22.0.1, SVG Export Plug-In . SVG Version: 6.00 Build 0)  -->
<svg version="1.1" id="Layer_1" xmlns="http://www.w3.org/2000/svg" xmlns:xlink="http://www.w3.org/1999/xlink" x="0px" y="0px"
	 viewBox="0 0 98.2 89.6" style="enable-background:new 0 0 98.2 89.6;" xml:space="preserve">
<path style="opacity:0.3;enable-background:new    ;" d="M89.5,37.4l-13.9-24c-1.3-2.2-3.1-4.1-5.4-5.4c-2.2-1.3-4.8-2-7.3-2H35.2
	c-2.6,0-5.1,0.7-7.3,2s-4.1,3.1-5.4,5.4l-13.9,24c-1.3,2.2-2,4.8-2,7.4c0,2.6,0.7,5.1,2,7.3l13.9,24c1.3,2.2,3.1,4.1,5.4,5.4
	c2.2,1.3,4.8,2,7.3,2h27.7c2.6,0,5.1-0.7,7.3-2c2.2-1.3,4.1-3.1,5.4-5.4l13.9-24c1.3-2.2,2-4.8,2-7.4S90.8,39.7,89.5,37.4z"/>
<g id="Group_5247" transform="translate(-671.313 -3249.662)">
	<g id="Path_8657" transform="translate(-4.294 2334.105)">
		<path style="fill:none;" d="M738.5,925.1h-27.7c-4,0-7.7,2.1-9.7,5.6l-13.9,24c-2,3.5-2,7.8,0,11.2l13.9,24c2,3.5,5.7,5.6,9.7,5.6
			h27.7c4,0,7.7-2.1,9.7-5.6l13.9-24c2-3.5,2-7.8,0-11.2l-13.9-24C746.3,927.2,742.6,925.1,738.5,925.1z"/>
		<path style="fill:#FFFFFF;" d="M762.1,954.7l-13.9-24c-2-3.5-5.7-5.6-9.7-5.6h-27.7c-4,0-7.7,2.1-9.7,5.6l-13.9,24
			c-2,3.5-2,7.8,0,11.2l13.9,24c2,3.5,5.7,5.6,9.7,5.6h27.7c4,0,7.7-2.1,9.7-5.6l13.9-24C764.1,962.5,764.1,958.2,762.1,954.7z
			 M758.9,964.1l-13.9,24c-1.3,2.3-3.8,3.8-6.5,3.8h-27.7c-2.7,0-5.2-1.4-6.5-3.8l-13.9-24c-1.3-2.3-1.3-5.2,0-7.5l13.9-24
			c1.3-2.3,3.8-3.8,6.5-3.8h27.7c2.7,0,5.2,1.4,6.5,3.8l13.9,24C760.3,958.9,760.3,961.8,758.9,964.1z"/>
	</g>
	<path id="Path_8660" style="fill:#FFFFFF;" d="M714.6,3279.7l17.9,14.6l-17.9,14.6V3279.7z"/>
</g>
</svg>
