<?xml version="1.0" encoding="utf-8"?>
<!-- Generator: Adobe Illustrator 25.0.1, SVG Export Plug-In . SVG Version: 6.00 Build 0)  -->
<svg version="1.1" id="Layer_1" xmlns="http://www.w3.org/2000/svg" xmlns:xlink="http://www.w3.org/1999/xlink" x="0px" y="0px"
	 viewBox="0 0 263 258" style="enable-background:new 0 0 263 258;" xml:space="preserve">
<style type="text/css">
	.st0{fill:none;stroke:#888988;stroke-width:3;stroke-miterlimit:10;}
</style>
<g>
	<path class="st0" d="M169.6,88.4h-14.9V66.1c0-12.8-10.4-23.2-23.2-23.2l0,0c-12.8,0-23.2,10.4-23.2,23.2v4.2
		c0,0.8-0.6,1.4-1.4,1.4H94.8c-0.8,0-1.4-0.6-1.4-1.4v-6.9c0-19.5,15.8-35.4,35.4-35.4h5.4c19.5,0,35.4,15.8,35.4,35.4V88.4z"/>
	<path d="M144,117h-25c-1.8,0-3.3,1.5-3.3,3.3v70.9c0,1.8,1.5,3.3,3.3,3.3h25c1.8,0,3.3-1.5,3.3-3.3v-70.9
		C147.2,118.4,145.8,117,144,117z M137.7,181.9c-1.1,0.8-2.2,1.5-3.3,2.4c-0.9-1.7-1.8-3.2-2.7-4.9c-0.3,0.5-0.6,1-0.9,1.4
		c-0.5,0.9-2,3.6-2.1,3.5c-1-0.6-2.1-1.9-3.2-2.7c1.2-1.3,2.4-2.6,3.6-3.9c-0.4-0.1-0.7-0.1-1.1-0.2c-1.2-0.2-2.4-0.5-3.6-0.7
		c-0.5-0.1-0.7-0.3-0.5-0.9c0.3-0.8,0.5-1.5,0.7-2.3c0.1-0.5,0.4-0.7,0.9-0.5c1.3,0.6,2.7,1.2,4,1.7c0.2,0.1,0.3,0.1,0.6,0.2
		c-0.2-1.9-0.4-3.7-0.7-5.7c1.4,0,2.6,0,4.1,0c-0.2,1.8-0.4,3.5-0.7,5.4c1.8-0.8,3.4-1.5,5.2-2.2c0.4,1.3,0.7,2.5,1.1,3.8
		c-1.8,0.4-3.5,0.8-5.3,1.3C135.2,179,136.4,180.4,137.7,181.9z M134,155.9c1.3,1.5,2.5,2.8,3.7,4.3c-1.1,0.8-2.2,1.5-3.3,2.4
		c-0.9-1.7-1.8-3.2-2.7-4.9c-0.3,0.5-0.6,1-0.9,1.4c-0.5,0.9-2,3.6-2.1,3.5c-1-0.6-2.1-1.9-3.2-2.7c1.2-1.3,2.4-2.6,3.6-3.9
		c-0.4-0.1-0.7-0.1-1.1-0.2c-1.2-0.2-2.4-0.5-3.6-0.7c-0.5-0.1-0.7-0.3-0.5-0.9c0.3-0.8,0.5-1.5,0.7-2.3c0.1-0.5,0.4-0.7,0.9-0.5
		c1.3,0.6,2.7,1.2,4,1.7c0.2,0.1,0.3,0.1,0.6,0.2c-0.2-1.9-0.4-3.7-0.7-5.7c1.4,0,2.6,0,4.1,0c-0.2,1.8-0.4,3.5-0.7,5.4
		c1.8-0.8,3.4-1.5,5.2-2.2c0.4,1.3,0.7,2.5,1.1,3.8C137.5,155,135.8,155.4,134,155.9z M134,134.9c1.3,1.5,2.5,2.8,3.7,4.3
		c-1.1,0.8-2.2,1.5-3.3,2.4c-0.9-1.7-1.8-3.2-2.7-4.9c-0.3,0.5-0.6,1-0.9,1.4c-0.5,0.9-2,3.6-2.1,3.5c-1-0.6-2.1-1.9-3.2-2.7
		c1.2-1.3,2.4-2.6,3.6-3.9c-0.4-0.1-0.7-0.1-1.1-0.2c-1.2-0.2-2.4-0.5-3.6-0.7c-0.5-0.1-0.7-0.3-0.5-0.9c0.3-0.8,0.5-1.5,0.7-2.3
		c0.1-0.5,0.4-0.7,0.9-0.5c1.3,0.6,2.7,1.2,4,1.8c0.2,0.1,0.3,0.1,0.6,0.2c-0.2-1.9-0.4-3.7-0.7-5.7c1.4,0,2.6,0,4.1,0
		c-0.2,1.8-0.4,3.5-0.7,5.4c1.8-0.8,3.4-1.5,5.2-2.2c0.4,1.3,0.7,2.5,1.1,3.8C137.5,134.1,135.8,134.5,134,134.9z"/>
	<path class="st0" d="M168.7,88.5H94.3c-11.5,0-20.8,9.3-20.8,20.8V172c0,32,26,58,58,58l0,0c32,0,58-26,58-58v-62.7
		C189.5,97.8,180.2,88.5,168.7,88.5z"/>
</g>
</svg>
