<?xml version="1.0" encoding="utf-8"?>
<!-- Generator: Adobe Illustrator 25.2.0, SVG Export Plug-In . SVG Version: 6.00 Build 0)  -->
<svg version="1.1" id="Layer_1" xmlns="http://www.w3.org/2000/svg" xmlns:xlink="http://www.w3.org/1999/xlink" x="0px" y="0px"
	 viewBox="0 0 45.7 35.6" style="enable-background:new 0 0 45.7 35.6;" xml:space="preserve">
<style type="text/css">
	.st0{fill:none;stroke:#000000;stroke-width:0.7;stroke-miterlimit:10;}
	.st1{fill:none;stroke:#000000;stroke-width:1.3;stroke-miterlimit:10;}
	.st2{fill:none;stroke:#000000;stroke-width:1.1408;stroke-miterlimit:10;}
	.st3{fill:#0F1220;}
</style>
<g>
	<g>
		<line class="st0" x1="37.2" y1="34.9" x2="37.2" y2="9.8"/>
		<g>
			<line class="st0" x1="29.9" y1="34.9" x2="29.9" y2="15.1"/>
			<line class="st0" x1="22.7" y1="34.9" x2="22.7" y2="18.8"/>
			<line class="st0" x1="15.4" y1="34.9" x2="15.4" y2="15.1"/>
		</g>
		<line class="st0" x1="8.2" y1="34.9" x2="8.2" y2="9.8"/>
		<path class="st1" d="M32.1,9.8H42c1.7,0,3,1.4,3,3v19c0,1.7-1.4,3-3,3H3.7c-1.7,0-3-1.4-3-3v-19c0-1.7,1.4-3,3-3h9.8"/>
		<line class="st0" x1="44.7" y1="22.4" x2="0.7" y2="22.4"/>
	</g>
	<g>
		<circle class="st2" cx="22.8" cy="9.6" r="9.1"/>
		<g>
			<path class="st3" d="M20.5,10.2l1.6,0c0.3,0,0.4,0.2,0.4,0.5l-1,3.4L25,9.6c0.1-0.1,0-0.3-0.2-0.3l-1.7,0C23,9.3,22.9,9.2,23,9
				l1-3.6l-3.6,4.5C20.2,10,20.3,10.2,20.5,10.2z"/>
		</g>
		<g>
			<g>
				<path class="st3" d="M18.4,11.9c-0.1,0-0.1,0-0.2-0.1c-0.5-0.6-0.7-1.3-0.7-2.1c0-0.8,0.2-1.5,0.7-2.1c0.1-0.1,0.2-0.1,0.3,0
					c0.1,0.1,0.1,0.2,0,0.3c-0.4,0.5-0.6,1.2-0.6,1.8s0.2,1.3,0.6,1.8c0.1,0.1,0.1,0.2,0,0.3C18.4,11.9,18.4,11.9,18.4,11.9z"/>
				<path class="st3" d="M17.6,13.1c-0.1,0-0.1,0-0.2-0.1c-0.8-1-1.2-2.1-1.2-3.3s0.4-2.4,1.2-3.3c0.1-0.1,0.2-0.1,0.3,0
					c0.1,0.1,0.1,0.2,0,0.3c-0.7,0.9-1.1,1.9-1.1,3s0.4,2.2,1.1,3c0.1,0.1,0.1,0.2,0,0.3C17.7,13.1,17.7,13.1,17.6,13.1z"/>
			</g>
			<g>
				<path class="st3" d="M27,11.8c0,0-0.1,0-0.1,0c-0.1-0.1-0.1-0.2,0-0.3c0.4-0.5,0.6-1.2,0.6-1.8c0-0.7-0.2-1.3-0.6-1.8
					c-0.1-0.1-0.1-0.2,0-0.3c0.1-0.1,0.2-0.1,0.3,0c0.5,0.6,0.7,1.3,0.7,2.1c0,0.8-0.2,1.5-0.7,2.1C27.2,11.8,27.1,11.8,27,11.8z"/>
				<path class="st3" d="M27.8,13.1c0,0-0.1,0-0.1,0c-0.1-0.1-0.1-0.2,0-0.3c0.7-0.9,1.1-1.9,1.1-3s-0.4-2.2-1.1-3
					c-0.1-0.1-0.1-0.2,0-0.3c0.1-0.1,0.2-0.1,0.3,0c0.8,1,1.2,2.1,1.2,3.3S28.7,12,27.9,13C27.9,13,27.8,13.1,27.8,13.1z"/>
			</g>
		</g>
	</g>
</g>
</svg>
